Coordinates
version=1
nRows=7
nColumns=40
inDegrees=yes

Units are S.I. units (second, meters, Newtons, ...)
Angles are in degrees.

endheader
time	pelvis_tilt	pelvis_list	pelvis_rotation	pelvis_tx	pelvis_ty	pelvis_tz	hip_flexion_r	hip_adduction_r	hip_rotation_r	knee_angle_r	knee_angle_r_beta	ankle_angle_r	subtalar_angle_r	mtp_angle_r	hip_flexion_l	hip_adduction_l	hip_rotation_l	knee_angle_l	knee_angle_l_beta	ankle_angle_l	subtalar_angle_l	mtp_angle_l	lumbar_extension	lumbar_bending	lumbar_rotation	arm_flex_r	arm_add_r	arm_rot_r	elbow_flex_r	pro_sup_r	wrist_flex_r	wrist_dev_r	arm_flex_l	arm_add_l	arm_rot_l	elbow_flex_l	pro_sup_l	wrist_flex_l	wrist_dev_l
     37.09250000	     -9.00056336	     -6.82408212	      2.23710961	      1.07347655	      0.91859985	      0.42663790	     11.16481050	     -1.25288976	    -12.38790736	     33.43909985	     33.43909985	     12.31458943	     -9.21415243	     -5.86119301	     30.41396029	     -6.22828300	      1.74853837	     28.51525454	     28.51525454	     10.77793579	    -11.17239408	      5.14801543	    -10.34309755	      4.30680270	      2.91755361	     24.64043686	    -12.61290249	      8.32785314	     98.68389303	     44.09095917	      0.00000000	      0.00000000	     -1.93132882	     -7.52104650	     -6.85854302	     30.38352178	     45.59753091	      0.00000000	      0.00000000
     37.10485714	     -8.99580494	     -6.84762698	      2.06899911	      1.07347509	      0.91971899	      0.42451650	     12.70755680	     -1.58149450	    -11.62794627	     36.83002009	     36.83002009	     10.68307767	    -11.28076290	     -6.50919935	     29.64332458	     -6.22811789	      1.50709357	     28.16714707	     28.16714707	     11.12003377	    -11.02131289	      4.96782495	    -10.26200320	      4.30248259	      2.39120197	     24.02721327	    -12.47492940	      9.49619536	     94.42930179	     44.25987253	      0.00000000	      0.00000000	     -2.20572187	     -7.90356807	     -7.75743719	     32.75639070	     45.76519816	      0.00000000	      0.00000000
     37.11721429	     -8.89885833	     -6.68528603	      1.89859469	      1.07337441	      0.92083136	      0.42240162	     14.34032134	     -2.16585146	    -11.01122849	     40.50123702	     40.50123702	      9.27870392	    -12.87206129	     -6.42105582	     28.73902642	     -6.05428044	      1.13226111	     27.78768645	     27.78768645	     11.46844282	    -10.81471063	      4.86692334	    -10.37072197	      4.11838189	      2.82602220	     22.33221679	    -13.01631302	      9.85561021	     92.38482009	     44.31486148	      0.00000000	      0.00000000	     -1.32675748	     -8.22581816	     -7.93866899	     33.56738287	     45.80870936	      0.00000000	      0.00000000
     37.12957143	     -8.83304672	     -6.57977125	      1.74206653	      1.07317666	      0.92178320	      0.42040656	     16.08925837	     -2.58766991	    -10.28544418	     44.14755735	     44.14755735	      7.85281056	    -14.66221617	     -5.97430589	     27.90944833	     -5.93908489	      0.76753748	     27.44014028	     27.44014028	     11.74789556	    -10.60230984	      4.74375947	    -10.38575314	      4.01859202	      3.20037236	     20.78677336	    -13.47864479	     10.13666517	     89.52922246	     44.39989369	      0.00000000	      0.00000000	     -0.54914838	     -8.55501425	     -8.13565596	     34.68102793	     45.85321844	      0.00000000	      0.00000000
     37.14192857	     -8.67960008	     -6.54670327	      1.63355226	      1.07297106	      0.92271170	      0.41850571	     17.83416501	     -2.87926660	     -9.61409996	     47.84927962	     47.84927962	      7.29799080	    -15.90053023	     -3.20681971	     27.02444742	     -5.89557277	      0.45068586	     27.13819514	     27.13819514	     12.03278291	    -10.37882958	      4.32006818	    -10.40408526	      3.98428778	      2.05723947	     20.85570550	    -12.55770407	     11.08118245	     83.28499891	     44.61053208	      0.00000000	      0.00000000	     -1.29606475	     -9.13829614	     -8.76020143	     37.80780531	     45.95959170	      0.00000000	      0.00000000
     37.15428571	     -8.60253425	     -6.43217715	      1.52054269	      1.07261022	      0.92343710	      0.41650460	     19.64117983	     -3.32537024	     -9.13845445	     51.28539364	     51.28539364	      6.25309367	    -17.10709927	     -2.21990615	     26.20586144	     -5.72882157	      0.16011258	     26.80376046	     26.80376046	     12.35916162	    -10.20949926	      4.19383320	    -10.42970653	      3.92822492	      2.57063185	     19.21912541	    -13.30391616	     11.51482327	     80.46761213	     44.69078849	      0.00000000	      0.00000000	     -0.41999766	     -9.44275823	     -9.06500725	     39.11189524	     46.02145397	      0.00000000	      0.00000000
     37.16664286	     -8.46069052	     -6.29086679	      1.43992068	      1.07216730	      0.92409979	      0.41457695	     21.54866821	     -3.71506935	     -8.55947339	     54.85804181	     54.85804181	      6.75547357	    -17.53743895	      2.74465048	     25.36134603	     -5.53797306	     -0.11643242	     26.52867247	     26.52867247	     12.66115667	    -10.02954367	      3.89778074	    -10.50263586	      3.82593088	      1.64466853	     19.01629877	    -12.91651136	     12.84849005	     75.30400499	     44.85747032	      0.00000000	      0.00000000	     -0.89967895	     -9.97386254	    -10.17073431	     42.03251709	     46.21031996	      0.00000000	      0.00000000
